<svg width="148" height="36" viewBox="0 0 148 36" fill="none" xmlns="http://www.w3.org/2000/svg">
<path d="M45.8094 24.8154C45.6698 24.265 45.5449 23.7219 45.4126 23.1494C44.7881 20.4339 44.0901 17.3955 41.6948 14.2177C42.4921 12.332 42.9426 10.3183 43.0247 8.27296C43.1276 6.85897 43.1546 5.44047 43.1055 4.02359C43.1791 3.55607 43.1592 3.07861 43.047 2.61882C42.9347 2.15902 42.7323 1.72601 42.4516 1.3448C42.0793 0.890717 41.6035 0.532434 41.064 0.300017C40.5245 0.0675999 39.937 -0.0321717 39.3509 0.00907433H38.9835C36.7793 0.13384 31.9153 2.37228 29.7992 3.39976C28.0228 2.89659 26.1776 2.67859 24.3327 2.75392H23.0101H21.6876C19.8426 2.67859 17.9974 2.89659 16.221 3.39976C14.1049 2.38696 9.24825 0.148518 7.03665 0.00907433H6.66193C6.07704 -0.0309734 5.49104 0.0693821 4.95291 0.301756C4.41477 0.534129 3.94013 0.891772 3.56864 1.3448C3.28785 1.72601 3.08549 2.15902 2.97325 2.61882C2.86101 3.07861 2.84111 3.55607 2.91471 4.02359C2.86564 5.44047 2.89262 6.85897 2.99553 8.27296C3.07426 10.3187 3.5249 12.3331 4.32543 14.2177C1.93015 17.3955 1.23214 20.4339 0.607599 23.1494C0.475344 23.7219 0.343089 24.2283 0.210834 24.8154C0.00485893 25.4277 -0.051262 26.0805 0.0471699 26.7189C0.145602 27.3573 0.395722 27.9629 0.776591 28.485C1.36593 29.2089 2.18966 29.7046 3.10575 29.8868C2.94712 30.5946 3.00206 31.3335 3.2636 32.0101C3.52515 32.6867 3.98158 33.2708 4.57524 33.6885C4.98997 33.9802 5.48607 34.1343 5.99331 34.1288C6.53335 34.1052 7.06418 33.9807 7.55833 33.7618C7.73467 33.6958 7.9257 33.6224 8.13143 33.5564C8.26251 34.0241 8.49873 34.4559 8.82209 34.8187C9.0961 35.1158 9.43071 35.3508 9.80335 35.5078C10.176 35.6648 10.578 35.7401 10.9823 35.7287C12.0393 35.6435 13.0698 35.3543 14.0168 34.8774C14.6803 34.5745 15.3686 34.3289 16.0741 34.1435C18.1722 35.3595 20.5549 36 22.9807 36C25.4065 36 27.7892 35.3595 29.8874 34.1435C30.5925 34.3302 31.2807 34.5757 31.9447 34.8774C32.8912 35.3552 33.9219 35.6444 34.9792 35.7287C35.3825 35.7415 35.7839 35.6667 36.1555 35.5096C36.5272 35.3525 36.8603 35.1168 37.132 34.8187C37.458 34.4577 37.6945 34.0253 37.8226 33.5564L38.4031 33.7618C38.8947 33.9807 39.4231 34.1051 39.9608 34.1288C40.4681 34.1353 40.9646 33.9811 41.3788 33.6885C41.9725 33.2708 42.4289 32.6867 42.6905 32.0101C42.952 31.3335 43.007 30.5946 42.8483 29.8868C43.7651 29.7064 44.5894 29.2103 45.1775 28.485C45.5694 27.9687 45.8314 27.3658 45.9414 26.7272C46.0514 26.0886 46.0061 25.4329 45.8094 24.8154ZM44.046 26.5842C44.0392 26.647 44.0244 26.7086 44.0019 26.7676C43.9769 26.8475 43.9475 26.9259 43.9137 27.0025C43.8732 27.0842 43.8266 27.1627 43.7741 27.2373L41.107 22.2981L36.5442 17.8946L30.8425 14.0929H24.2298L23.0395 9.54998L21.8639 14.1076H15.2512L9.54215 17.9093L4.97936 22.3128L2.31222 27.2373L2.371 27.3841C2.33519 27.3484 2.30318 27.309 2.27548 27.2667C2.15237 27.1103 2.06237 26.9305 2.01097 26.7383C1.98843 26.6793 1.97361 26.6176 1.96688 26.5548C1.93998 26.3575 1.93998 26.1576 1.96688 25.9603V25.7622C1.98953 25.6015 2.02142 25.4422 2.0624 25.2851C2.97349 21.6963 3.31148 18.1955 6.66193 14.3645C4.39891 11.6857 4.82506 3.89883 4.82506 3.89883C4.82506 3.89883 4.31074 1.90992 6.66193 1.90992H6.95583C9.27764 2.04936 16.2137 5.49876 16.2137 5.49876C16.2528 5.47025 16.2946 5.44566 16.3386 5.42537H16.3827H16.4414C16.5182 5.38039 16.5995 5.3435 16.6839 5.31528H16.7647L17.0954 5.14648H17.235C18.6957 4.8207 20.1914 4.67771 21.6876 4.72081C22.099 4.72081 22.5399 4.72081 23.0101 4.72081C23.4803 4.72081 23.9212 4.72081 24.3327 4.72081C25.8264 4.67709 27.3197 4.82009 28.7779 5.14648H28.9248C29.0718 5.19052 29.1967 5.22721 29.3069 5.27125H29.3657C29.4495 5.3009 29.5307 5.33773 29.6082 5.38134H29.6669H29.711C29.7548 5.40187 29.7967 5.42644 29.8359 5.45473C29.8359 5.45473 36.7646 2.00532 39.0938 1.86588H39.3509C39.538 1.86447 39.7248 1.8792 39.9093 1.90992L40.1371 1.96129L40.3428 2.02734C40.5105 2.09172 40.6649 2.18624 40.7984 2.30623C40.8389 2.34164 40.8758 2.38098 40.9086 2.42366C41.0612 2.63234 41.166 2.87202 41.2156 3.12569C41.2651 3.37936 41.2581 3.64081 41.1951 3.89149C41.1951 3.89149 41.6213 11.6783 39.3656 14.3571C42.7161 18.1882 43.0394 21.6963 43.9651 25.2778C44.0054 25.4301 44.0373 25.5844 44.0607 25.7402C44.1054 26.0202 44.1004 26.3059 44.046 26.5842Z" fill="#454140"/>
<path d="M44.0459 26.5842C44.0391 26.647 44.0243 26.7086 44.0018 26.7676C43.9768 26.8475 43.9474 26.9259 43.9136 27.0025C43.8731 27.0842 43.8265 27.1627 43.774 27.2373L41.1069 22.2981L36.5441 17.8946L30.8424 14.0929H24.2297L23.0394 9.54997L21.8638 14.1076H15.251L9.54204 17.9093L4.97924 22.3128L2.3121 27.2373L2.37089 27.3841C2.33508 27.3484 2.30307 27.309 2.27537 27.2667C2.15225 27.1103 2.06226 26.9305 2.01086 26.7383C1.98832 26.6793 1.9735 26.6176 1.96677 26.5548C1.93987 26.3576 1.93987 26.1576 1.96677 25.9603V25.7622C1.98942 25.6015 2.02131 25.4422 2.06229 25.2851C2.97338 21.6963 3.31136 18.1955 6.66182 14.3645C4.39879 11.6857 4.82495 3.89882 4.82495 3.89882C4.82495 3.89882 4.31062 1.90991 6.66182 1.90991H6.95572C9.27753 2.04936 16.2136 5.49876 16.2136 5.49876C16.2527 5.47025 16.2945 5.44566 16.3385 5.42537H16.3826H16.4413C16.5181 5.38039 16.5994 5.3435 16.6838 5.31528H16.7646L17.0953 5.14648H17.2349C18.6956 4.82069 20.1913 4.67771 21.6874 4.72081C22.0989 4.72081 22.5397 4.72081 23.01 4.72081C23.4802 4.72081 23.9211 4.72081 24.3325 4.72081C25.8263 4.67709 27.3196 4.82009 28.7778 5.14648H28.9247C29.0717 5.19052 29.1966 5.22721 29.3068 5.27125H29.3656C29.4494 5.30089 29.5305 5.33773 29.608 5.38133H29.6668H29.7109C29.7547 5.40187 29.7965 5.42644 29.8358 5.45473C29.8358 5.45473 36.7645 2.00532 39.0937 1.86588H39.3508C39.5379 1.86447 39.7247 1.8792 39.9092 1.90991L40.137 1.96129L40.3427 2.02734C40.5104 2.09172 40.6648 2.18624 40.7983 2.30623C40.8388 2.34164 40.8757 2.38097 40.9085 2.42365C41.0611 2.63234 41.1659 2.87201 41.2155 3.12569C41.265 3.37936 41.258 3.64081 41.195 3.89149C41.195 3.89149 41.6212 11.6783 39.3655 14.3571C42.716 18.1882 43.0393 21.6963 43.965 25.2778C44.0053 25.4301 44.0371 25.5844 44.0606 25.7402C44.1053 26.0202 44.1003 26.3059 44.0459 26.5842Z" fill="#454140"/>
<path d="M6.22102 4.80888C8.76499 5.2081 11.0792 6.51114 12.7382 8.47846C8.4767 10.849 8.77794 12.3095 7.68317 13.5278C5.06746 9.92427 6.22102 4.80888 6.22102 4.80888Z" fill="white"/>
<path d="M21.761 15.5828C21.8492 14.3057 22.2166 13.4544 20.6663 13.0287C19.1159 12.6031 17.1982 13.0287 15.2732 13.5131C13.3482 13.9975 9.29969 11.4435 10.828 15.7149C4.36952 22.0926 4.75159 22.8192 4.75159 23.4283C4.75159 24.0375 6.12557 25.1897 7.37465 23.4283C8.62372 21.6669 7.83019 21.7256 9.23356 19.7587C10.6369 17.7918 14.3768 14.6213 16.0226 15.0103C17.6685 15.3993 21.6508 16.8891 21.761 15.5828Z" fill="white"/>
<path d="M16.1256 23.1274C16.9191 22.7531 12.4151 27.2153 13.1425 26.9585C16.9191 25.6227 16.4286 25.875 13.1425 29.1602C13.1425 30.4959 15.5157 28.9767 15.3467 30.1363C15.2659 30.628 11.8126 33.116 11.5113 31.6041C11.2101 30.0923 9.38055 30.2024 9.38055 29.2923C9.38055 28.3823 10.4166 29.5932 10.9309 27.164C11.7685 25.5567 13.9287 24.1622 16.1256 23.1274Z" fill="white"/>
<path d="M27.5288 29.5125C26.9944 30.1857 26.3052 30.7201 25.5198 31.0702C24.7344 31.4203 23.8759 31.5758 23.0174 31.5234C22.1589 31.5758 21.3004 31.4203 20.515 31.0702C19.7296 30.7201 19.0404 30.1857 18.506 29.5125C14.6045 28.7786 16.919 25.3145 16.919 25.3145C16.919 25.3145 18.5648 23.0614 19.1747 22.4522C19.6008 21.9018 19.7257 20.1404 21.4891 21.4761C22.5251 22.7531 21.3642 23.3623 22.0402 24.0301C22.5251 24.5145 20.7617 24.2723 20.1519 25.498C19.9722 25.8707 19.8734 26.2773 19.862 26.6908C19.8506 27.1044 19.9268 27.5158 20.0858 27.8979C20.2694 28.1401 20.9381 28.0226 21.6067 28.6905C21.7898 28.8753 22.0078 29.0221 22.248 29.1222C22.4883 29.2224 22.7461 29.2739 23.0064 29.2739C23.2667 29.2739 23.5245 29.2224 23.7647 29.1222C24.005 29.0221 24.223 28.8753 24.4061 28.6905C25.0747 28.0226 25.7433 28.1401 25.927 27.8979C26.0925 27.5112 26.1729 27.0936 26.1627 26.6732C26.1526 26.2528 26.0522 25.8395 25.8682 25.4613C25.2584 24.243 23.495 24.4852 23.9799 23.9934C24.6485 23.3256 23.495 22.7164 24.531 21.4394C26.2944 20.1037 26.4193 21.8651 26.8454 22.4155C27.4553 23.0247 29.1011 25.2778 29.1011 25.2778C29.1011 25.2778 31.4156 28.7859 27.5288 29.5125Z" fill="white"/>
<path d="M39.7916 4.80888C37.2477 5.2081 34.9334 6.51114 33.2744 8.47846C37.536 10.849 37.2347 12.3095 38.3295 13.5278C40.9525 9.92427 39.7916 4.80888 39.7916 4.80888Z" fill="white"/>
<path d="M24.2591 15.5828C24.171 14.3057 23.8036 13.4544 25.3539 13.0287C26.9042 12.6031 28.8219 13.0287 30.747 13.5131C32.672 13.9975 36.7205 11.4435 35.1922 15.7149C41.6507 22.1073 41.2833 22.8338 41.2539 23.443C41.2245 24.0521 39.8799 25.2044 38.6308 23.443C37.3818 21.6816 38.1753 21.7403 36.7719 19.7734C35.3686 17.8065 31.6287 14.636 29.9828 15.025C28.337 15.414 24.3473 16.8891 24.2591 15.5828Z" fill="white"/>
<path d="M29.8947 23.1274C29.1012 22.7531 33.6052 27.2153 32.8778 26.9585C29.1012 25.6227 29.5714 25.875 32.8778 29.1602C32.8778 30.4959 30.5045 28.9767 30.6735 30.1363C30.7543 30.628 34.2077 33.116 34.5089 31.6041C34.8102 30.0923 36.6397 30.2024 36.6397 29.2923C36.6397 28.3823 35.611 29.5785 35.1041 27.164C34.2518 25.5567 32.0842 24.1622 29.8947 23.1274Z" fill="white"/>
<path d="M16.6105 20.4486C17.6209 20.4486 18.44 19.6304 18.44 18.6212C18.44 17.6119 17.6209 16.7937 16.6105 16.7937C15.6001 16.7937 14.7809 17.6119 14.7809 18.6212C14.7809 19.6304 15.6001 20.4486 16.6105 20.4486Z" fill="white"/>
<path d="M29.4684 20.4486C30.4789 20.4486 31.298 19.6304 31.298 18.6212C31.298 17.6119 30.4789 16.7937 29.4684 16.7937C28.458 16.7937 27.6389 17.6119 27.6389 18.6212C27.6389 19.6304 28.458 20.4486 29.4684 20.4486Z" fill="white"/>
<path d="M148 23.4158L146.921 24.8863C145.842 26.3613 144.239 27.4111 142.409 27.8399C141.247 28.1115 140.035 28.1236 138.866 27.8751C137.698 27.6266 136.606 27.1243 135.674 26.4071V27.8399H128.399V26.3694C127.037 27.4624 125.311 28.0551 123.532 28.041C122.476 28.0452 121.432 27.8353 120.467 27.4251C119.56 27.0459 118.735 26.5089 118.034 25.8415C117.914 25.9822 117.787 26.1165 117.652 26.2437C117.12 26.7581 116.484 27.1646 115.783 27.4388C115.083 27.7131 114.331 27.8495 113.574 27.8399H93.6711V26.3694C92.3087 27.4624 90.5828 28.0551 88.8038 28.041C87.748 28.0452 86.7033 27.8353 85.7388 27.4251C84.8319 27.0413 84.0103 26.4952 83.3183 25.8164C83.1359 25.642 82.9646 25.4573 82.8053 25.2634C82.6474 25.4519 82.4764 25.6278 82.2922 25.8038C81.5739 26.5166 80.7114 27.0825 79.7571 27.467C78.8028 27.8516 77.7766 28.0469 76.741 28.041C74.8993 28.0244 73.1216 27.3931 71.7159 26.2563C70.9644 26.7948 70.1302 27.2187 69.2428 27.5131C68.1538 27.9278 66.9947 28.1492 65.8226 28.1666C64.9343 28.1688 64.0497 28.059 63.1916 27.8399C62.3826 27.6226 61.6049 27.3102 60.8764 26.9098C60.151 26.503 59.4835 26.0088 58.89 25.4393C58.2959 24.8707 57.7788 24.2331 57.3509 23.5415C56.9284 22.8412 56.5971 22.0941 56.3643 21.3169C55.8786 19.6733 55.8786 17.9332 56.3643 16.2896C56.5944 15.5075 56.9258 14.756 57.3509 14.0525C57.7816 13.3626 58.2984 12.7254 58.89 12.1546C59.4851 11.5905 60.1525 11.1007 60.8764 10.6967C62.3814 9.87103 64.0871 9.43762 65.8226 9.43989C66.9751 9.44181 68.1187 9.63313 69.2033 10.0055C70.2997 10.3903 71.3121 10.9655 72.1894 11.7022L73.6101 12.8836L73.1629 13.6L73.6759 13.3738C74.6398 12.9603 75.6843 12.7462 76.741 12.7453C77.7737 12.7357 78.798 12.9237 79.7534 13.2984C80.6966 13.6544 81.5522 14.1936 82.2659 14.882C82.461 15.0611 82.6413 15.2544 82.8053 15.4601C82.9719 15.2758 83.1341 15.104 83.292 14.9448C83.9978 14.2586 84.8382 13.712 85.7651 13.3361C86.7276 12.9351 87.7669 12.7297 88.817 12.7328C89.8497 12.7231 90.874 12.9112 91.8294 13.2858C92.5075 13.5336 93.1386 13.886 93.6974 14.329V13.0847H97.6438L97.9727 13.4492C98.0651 13.4026 98.162 13.3647 98.2621 13.3361C99.0996 13.0223 99.9935 12.8686 100.893 12.8836C101.846 12.8764 102.791 13.0561 103.669 13.4115C104.51 13.76 105.273 14.2591 105.918 14.882C106.049 15.005 106.172 15.1351 106.286 15.2716C106.441 15.0702 106.613 14.8811 106.799 14.706C107.327 14.1962 107.956 13.7924 108.65 13.5183C109.344 13.2441 110.087 13.1053 110.838 13.1098H118.731V14.3667C120.118 13.2687 121.863 12.6685 123.664 12.6699C124.697 12.6603 125.721 12.8483 126.676 13.2229C127.351 13.4773 127.981 13.8291 128.544 14.2661V9H135.674V14.3415C137.06 13.297 138.776 12.7341 140.541 12.7453C141.175 12.7433 141.807 12.815 142.422 12.959C143.635 13.236 144.756 13.7976 145.685 14.5929C146.182 14.976 146.624 15.4197 147 15.9126L147.987 17.2448L146.895 18.5016L145.053 20.6257L146.698 22.1967L148 23.4158Z" fill="#454140"/>
<path d="M70.7162 24.2705C69.7789 25.0368 68.659 25.5717 67.4549 25.8281C66.2507 26.0845 64.9992 26.0545 63.8099 25.741C62.5555 25.404 61.4127 24.7647 60.4913 23.8844C59.5699 23.004 58.9007 21.9122 58.5481 20.7137C58.1995 19.4789 58.1995 18.1779 58.5481 16.9432C58.9007 15.7446 59.5699 14.6528 60.4913 13.7725C61.4127 12.8921 62.5555 12.2528 63.8099 11.9159C64.4606 11.7408 65.1334 11.652 65.8095 11.6519C66.7069 11.6475 67.5979 11.7965 68.4404 12.0918C69.2775 12.3733 70.0533 12.7994 70.7293 13.3486L69.1771 15.724C68.7547 15.2854 68.2389 14.9382 67.6643 14.706C67.0828 14.4658 66.4561 14.3417 65.8226 14.3415C65.1985 14.3376 64.5804 14.4575 64.0073 14.6934C63.4618 14.9055 62.9623 15.2123 62.5339 15.5984C62.1088 16.0016 61.7693 16.4796 61.5342 17.006C61.2872 17.5536 61.1618 18.1442 61.1658 18.7404C61.1613 19.3327 61.2867 19.9193 61.5342 20.4623C62.0105 21.524 62.896 22.37 64.0073 22.8251C64.5802 23.0618 65.1985 23.1817 65.8226 23.177C66.4508 23.1794 67.0729 23.0597 67.6511 22.8251C68.2233 22.6166 68.7432 22.2955 69.1771 21.8825L70.7162 24.2705Z" fill="white"/>
<path d="M82.2793 20.3994C82.2873 21.1446 82.1397 21.8838 81.8452 22.5738C81.5803 23.2217 81.1872 23.8148 80.6875 24.3207C80.1835 24.8112 79.5849 25.2038 78.9248 25.477C78.2385 25.7564 77.5003 25.9003 76.7543 25.9003C76.0083 25.9003 75.27 25.7564 74.5838 25.477C73.2313 24.921 72.163 23.8778 71.6108 22.5738C71.3163 21.8838 71.1687 21.1446 71.1767 20.3994C71.1673 19.646 71.3149 18.8984 71.6108 18.2C71.8823 17.5494 72.2845 16.9559 72.7947 16.453C73.3018 15.9602 73.9051 15.5674 74.5706 15.2967C75.2564 15.0169 75.9954 14.8757 76.7411 14.882C77.4843 14.8759 78.2215 15.0083 78.9117 15.2716C79.5725 15.5265 80.1722 15.9071 80.6744 16.3902C81.1786 16.8856 81.5763 17.4705 81.8452 18.112C82.1477 18.8393 82.2953 19.617 82.2793 20.3994ZM79.4773 20.3994C79.4812 20.0039 79.4053 19.6113 79.2537 19.2432C79.1182 18.9121 78.9172 18.6091 78.6617 18.3508C78.4124 18.1025 78.1125 17.9057 77.7804 17.7727C77.0922 17.5091 76.3243 17.5091 75.6361 17.7727C75.3027 17.9034 75.0023 18.1005 74.7548 18.3508C74.4987 18.6088 74.2977 18.9118 74.1628 19.2432C74.0176 19.6126 73.9462 20.0048 73.9523 20.3994C73.9477 20.7817 74.0191 21.1613 74.1628 21.518C74.2997 21.8484 74.5005 22.1511 74.7548 22.4104C75.0035 22.6656 75.3032 22.8707 75.6361 23.0136C75.9759 23.1568 76.3435 23.2296 76.7148 23.2273C77.085 23.231 77.452 23.1626 77.7935 23.0262C78.1256 22.8932 78.4256 22.6964 78.6749 22.4481C78.932 22.1909 79.1332 21.8876 79.2668 21.5557C79.4178 21.1874 79.4937 20.795 79.4905 20.3994H79.4773Z" fill="white"/>
<path d="M94.3683 20.3994C94.3763 21.1446 94.2287 21.8838 93.9342 22.5738C93.6575 23.2247 93.2509 23.8181 92.7371 24.3207C92.2331 24.8112 91.6345 25.2038 90.9744 25.477C90.2881 25.7564 89.5498 25.9003 88.8038 25.9003C88.0579 25.9003 87.3196 25.7564 86.6333 25.477C85.2809 24.921 84.2126 23.8778 83.6604 22.5738C83.3658 21.8838 83.2182 21.1446 83.2263 20.3994C83.2169 19.646 83.3644 18.8984 83.6604 18.2C83.9358 17.5484 84.3425 16.9548 84.8574 16.453C85.3645 15.9602 85.9679 15.5674 86.6333 15.2967C87.3191 15.0169 88.0581 14.8757 88.8038 14.882C89.547 14.8759 90.2842 15.0083 90.9744 15.2716C91.6352 15.5265 92.2349 15.9071 92.7371 16.3902C93.2507 16.8833 93.6575 17.4685 93.9342 18.112C94.2367 18.8393 94.3843 19.617 94.3683 20.3994ZM91.5663 20.3994C91.5702 20.0039 91.4943 19.6113 91.3427 19.2432C91.2072 18.9121 91.0063 18.6091 90.7507 18.3508C90.5015 18.1025 90.2015 17.9057 89.8694 17.7727C89.1813 17.5091 88.4133 17.5091 87.7252 17.7727C87.3918 17.9034 87.0913 18.1005 86.8438 18.3508C86.5878 18.6088 86.3867 18.9118 86.2518 19.2432C86.1066 19.6126 86.0352 20.0048 86.0414 20.3994C86.0367 20.7817 86.1081 21.1613 86.2518 21.518C86.3887 21.8484 86.5896 22.1511 86.8438 22.4104C87.0925 22.6656 87.3922 22.8707 87.7252 23.0136C88.0649 23.1568 88.4325 23.2296 88.8038 23.2273C89.174 23.231 89.541 23.1626 89.8825 23.0262C90.2146 22.8932 90.5146 22.6964 90.7639 22.4481C91.021 22.1909 91.2222 21.8876 91.3559 21.5557C91.5023 21.1866 91.5738 20.7941 91.5663 20.3994Z" fill="white"/>
<path d="M98.683 25.653H95.9073V15.2841H96.5782L97.4991 16.3022C98.3959 15.5027 99.5743 15.0541 100.801 15.0454C101.447 15.0425 102.088 15.1666 102.682 15.4098C103.263 15.6457 103.79 15.9872 104.234 16.4153C104.676 16.8423 105.029 17.3456 105.273 17.8984C105.544 18.4801 105.682 19.1095 105.681 19.7459V25.653H102.879V19.7459C102.883 19.4786 102.829 19.2135 102.721 18.9667C102.617 18.7275 102.465 18.5098 102.274 18.3257C102.085 18.1451 101.862 18.0001 101.616 17.8984C101.363 17.7965 101.089 17.7452 100.814 17.7475C100.53 17.7442 100.248 17.7955 99.9853 17.8984C99.4798 18.0998 99.078 18.4837 98.8672 18.9667C98.7598 19.2135 98.7061 19.4786 98.7093 19.7459L98.683 25.653Z" fill="white"/>
<path d="M113.574 25.653H107.26V23.0639H113.574C113.759 23.0639 113.937 22.9937 114.067 22.8688C114.198 22.7439 114.271 22.5745 114.271 22.3978C114.28 22.3238 114.264 22.2492 114.226 22.184C114.188 22.1189 114.131 22.0663 114.061 22.0333C113.912 21.9501 113.746 21.8987 113.574 21.8825H110.68C110.228 21.8806 109.78 21.7908 109.365 21.6186C108.534 21.2784 107.873 20.643 107.523 19.8464C107.345 19.4361 107.253 18.9962 107.253 18.5519C107.253 18.1077 107.345 17.6678 107.523 17.2574C107.871 16.4625 108.533 15.8305 109.365 15.4978C109.781 15.3272 110.228 15.2375 110.68 15.2339H116.31V17.8858H110.733C110.548 17.8858 110.371 17.956 110.24 18.0809C110.109 18.2058 110.036 18.3752 110.036 18.5519C110.036 18.6409 110.054 18.729 110.09 18.8111C110.126 18.8931 110.179 18.9674 110.246 19.0295C110.308 19.0935 110.384 19.1444 110.467 19.179C110.551 19.2136 110.642 19.2312 110.733 19.2306H113.574C114.023 19.2304 114.469 19.307 114.89 19.4568C115.297 19.6014 115.672 19.819 115.995 20.0978C116.318 20.3819 116.576 20.7279 116.751 21.1133C116.925 21.4988 117.013 21.915 117.008 22.335C117.006 22.7675 116.912 23.1951 116.731 23.5918C116.552 23.985 116.298 24.3429 115.982 24.6475C115.35 25.2744 114.484 25.636 113.574 25.653Z" fill="white"/>
<path d="M129.11 20.3994C129.118 21.1446 128.97 21.8838 128.676 22.5738C128.399 23.2247 127.993 23.8181 127.479 24.3207C126.975 24.8112 126.376 25.2038 125.716 25.477C125.03 25.7564 124.291 25.9003 123.545 25.9003C122.799 25.9003 122.061 25.7564 121.375 25.477C120.022 24.921 118.954 23.8778 118.402 22.5738C118.107 21.8838 117.96 21.1446 117.968 20.3994C117.958 19.646 118.106 18.8984 118.402 18.2C118.677 17.5484 119.084 16.9548 119.599 16.453C120.106 15.9602 120.709 15.5674 121.375 15.2967C122.061 15.0169 122.8 14.8757 123.545 14.882C124.289 14.8759 125.026 15.0083 125.716 15.2716C126.377 15.5265 126.976 15.9071 127.479 16.3902C127.988 16.8845 128.39 17.4695 128.663 18.112C128.97 18.8384 129.122 19.6161 129.11 20.3994ZM126.308 20.3994C126.312 20.0039 126.236 19.6113 126.084 19.2432C125.949 18.9121 125.748 18.6091 125.492 18.3508C125.243 18.1025 124.943 17.9057 124.611 17.7727C123.923 17.5091 123.155 17.5091 122.467 17.7727C122.133 17.9034 121.833 18.1005 121.585 18.3508C121.329 18.6088 121.128 18.9118 120.993 19.2432C120.848 19.6126 120.777 20.0048 120.783 20.3994C120.778 20.7817 120.85 21.1613 120.993 21.518C121.13 21.8484 121.331 22.1511 121.585 22.4104C121.834 22.6656 122.134 22.8707 122.467 23.0136C122.806 23.1568 123.174 23.2296 123.545 23.2273C123.916 23.231 124.283 23.1626 124.624 23.0262C124.956 22.8932 125.256 22.6964 125.505 22.4481C125.763 22.1909 125.964 21.8876 126.097 21.5557C126.244 21.1866 126.315 20.7941 126.308 20.3994Z" fill="white"/>
<path d="M133.438 25.653H130.675V11.1366H133.438V25.653Z" fill="white"/>
<path d="M139.884 23.1393L140.212 23.2022H140.541C140.808 23.2054 141.074 23.1716 141.331 23.1016C141.581 23.0321 141.819 22.9306 142.041 22.8C142.488 22.5326 142.841 22.1429 143.054 21.6814L145.145 23.6546C144.888 24.0024 144.588 24.3189 144.251 24.5973C143.918 24.8763 143.551 25.1167 143.159 25.3136C142.767 25.5073 142.352 25.655 141.923 25.7535C141.492 25.8536 141.05 25.9042 140.607 25.9044C139.875 25.9101 139.149 25.7763 138.471 25.5109C137.793 25.2455 137.178 24.8537 136.661 24.3585C136.147 23.8603 135.741 23.2712 135.464 22.624C135.166 21.9216 135.019 21.1696 135.03 20.412C135.017 19.638 135.165 18.8693 135.464 18.1497C135.729 17.5041 136.13 16.917 136.641 16.4243C137.152 15.9316 137.763 15.5436 138.437 15.2842C139.125 15.014 139.863 14.8773 140.607 14.882C141.05 14.8809 141.492 14.9316 141.923 15.0328C143.229 15.3476 144.373 16.1016 145.145 17.1568L139.884 23.1393ZM141.304 17.6596C141.181 17.6157 141.053 17.5861 140.923 17.5716H140.528C140.158 17.5696 139.792 17.6379 139.449 17.7727C139.119 17.902 138.819 18.0945 138.568 18.3383C138.311 18.5954 138.11 18.8987 137.976 19.2306C137.83 19.6042 137.758 20.0007 137.766 20.3994C137.766 20.5 137.766 20.6089 137.766 20.7262C137.759 20.8518 137.759 20.9777 137.766 21.1033C137.766 21.229 137.766 21.3546 137.858 21.4678C137.888 21.5772 137.932 21.6827 137.989 21.782L141.304 17.6596Z" fill="white"/>
</svg>

