<svg width="54" height="48" viewBox="0 0 54 48" fill="none" xmlns="http://www.w3.org/2000/svg">
<path d="M47.7271 25.6468C47.5817 25.078 47.4516 24.5167 47.3138 23.925C46.6631 21.1186 45.9358 17.9784 43.4403 14.694C44.2709 12.7452 44.7403 10.664 44.8259 8.55015C44.9331 7.08877 44.9612 5.62276 44.9101 4.1584C44.9867 3.67522 44.966 3.18176 44.8491 2.70656C44.7321 2.23136 44.5213 1.78384 44.2288 1.38986C43.841 0.92056 43.3452 0.550273 42.7831 0.310069C42.221 0.0698648 41.609 -0.0332496 40.9983 0.00937837H40.6156C38.319 0.138324 33.2514 2.45176 31.0467 3.51367C29.1959 2.99364 27.2735 2.76833 25.3513 2.84619H23.9734H22.5955C20.6733 2.76833 18.7509 2.99364 16.9001 3.51367C14.6954 2.46693 9.63542 0.153494 7.33124 0.00937837H6.94083C6.33145 -0.0320112 5.72092 0.0717068 5.16026 0.311866C4.5996 0.552025 4.10508 0.92165 3.71804 1.38986C3.4255 1.78384 3.21467 2.23136 3.09772 2.70656C2.98078 3.18176 2.96005 3.67522 3.03673 4.1584C2.98561 5.62276 3.01372 7.08877 3.12094 8.55015C3.20296 10.6644 3.67246 12.7463 4.50651 14.694C2.01095 17.9784 1.28372 21.1186 0.633036 23.925C0.495244 24.5167 0.357452 25.04 0.219661 25.6468C0.00506235 26.2797 -0.0534081 26.9543 0.0491446 27.6141C0.151697 28.2739 0.412289 28.8998 0.809103 29.4394C1.42311 30.1875 2.28133 30.6998 3.23577 30.8881C3.0705 31.6196 3.12773 32.3833 3.40023 33.0826C3.67273 33.7819 4.14827 34.3855 4.76678 34.8172C5.19887 35.1187 5.71574 35.2779 6.24422 35.2723C6.80686 35.2479 7.35991 35.1192 7.87475 34.893C8.05847 34.8248 8.2575 34.7489 8.47185 34.6806C8.60841 35.1641 8.85452 35.6103 9.19142 35.9853C9.4769 36.2923 9.82552 36.5352 10.2138 36.6974C10.602 36.8597 11.0208 36.9376 11.442 36.9258C12.5433 36.8377 13.617 36.5389 14.6036 36.046C15.2949 35.7329 16.012 35.4791 16.747 35.2874C18.933 36.5442 21.4154 37.2062 23.9428 37.2062C26.4701 37.2062 28.9526 36.5442 31.1386 35.2874C31.8732 35.4804 32.5902 35.7341 33.282 36.046C34.2682 36.5398 35.342 36.8386 36.4435 36.9258C36.8638 36.939 37.2819 36.8617 37.6691 36.6993C38.0563 36.537 38.4034 36.2933 38.6865 35.9853C39.0261 35.6122 39.2726 35.1653 39.4061 34.6806L40.0108 34.893C40.523 35.1192 41.0735 35.2478 41.6337 35.2723C42.1623 35.279 42.6795 35.1197 43.1111 34.8172C43.7296 34.3855 44.2052 33.7819 44.4777 33.0826C44.7502 32.3833 44.8074 31.6196 44.6421 30.8881C45.5973 30.7017 46.4561 30.189 47.0688 29.4394C47.4772 28.9057 47.7501 28.2827 47.8647 27.6227C47.9793 26.9626 47.9321 26.285 47.7271 25.6468ZM45.8899 27.4748C45.8829 27.5397 45.8675 27.6035 45.844 27.6645C45.818 27.747 45.7873 27.8281 45.7521 27.9072C45.7099 27.9917 45.6613 28.0728 45.6067 28.1499L42.8279 23.0452L38.0741 18.4941L32.1337 14.5651H25.2441L24.004 9.86994L22.7792 14.5803H15.8896L9.94162 18.5093L5.18781 23.0603L2.40902 28.1499L2.47026 28.3016C2.43295 28.2647 2.3996 28.224 2.37074 28.1803C2.24247 28.0186 2.14871 27.8328 2.09516 27.6341C2.07168 27.5731 2.05624 27.5094 2.04923 27.4445C2.0212 27.2407 2.0212 27.034 2.04923 26.8301V26.6253C2.07282 26.4592 2.10605 26.2946 2.14874 26.1323C3.09797 22.4232 3.45011 18.8051 6.94083 14.8457C4.58306 12.0772 5.02706 4.02946 5.02706 4.02946C5.02706 4.02946 4.4912 1.97391 6.94083 1.97391H7.24703C9.66604 2.11802 16.8924 5.683 16.8924 5.683C16.9332 5.65353 16.9768 5.62812 17.0226 5.60715H17.0685H17.1298C17.2098 5.56066 17.2944 5.52253 17.3824 5.49337H17.4666L17.8111 5.31891H17.9565C19.4784 4.98221 21.0367 4.83443 22.5955 4.87898C23.0242 4.87898 23.4835 4.87898 23.9734 4.87898C24.4633 4.87898 24.9226 4.87898 25.3513 4.87898C26.9076 4.8338 28.4634 4.98159 29.9826 5.31891H30.1357C30.2888 5.36442 30.419 5.40235 30.5338 5.44786H30.5951C30.6824 5.4785 30.7669 5.51657 30.8477 5.56164H30.9089H30.9548C31.0005 5.58286 31.0441 5.60825 31.085 5.63749C31.085 5.63749 38.3037 2.07251 40.7304 1.9284H40.9983C41.1932 1.92694 41.3879 1.94216 41.5801 1.97391L41.8174 2.027L42.0318 2.09527C42.2064 2.1618 42.3673 2.25949 42.5064 2.3835C42.5486 2.4201 42.5871 2.46075 42.6212 2.50486C42.7802 2.72053 42.8894 2.96824 42.941 3.23041C42.9926 3.49258 42.9854 3.76279 42.9197 4.02187C42.9197 4.02187 43.3637 12.0696 41.0136 14.8382C44.5043 18.7975 44.8412 22.4232 45.8057 26.1247C45.8476 26.2821 45.8808 26.4416 45.9052 26.6026C45.9519 26.892 45.9467 27.1872 45.8899 27.4748Z" transform="translate(2.72091)" fill="black"/>
<path d="M43.8617 25.5465C43.8547 25.6115 43.8393 25.6752 43.8158 25.7362C43.7898 25.8187 43.7591 25.8998 43.7239 25.9789C43.6817 26.0634 43.6331 26.1445 43.5785 26.2216L40.7997 21.1169L36.0459 16.5658L30.1055 12.6368H23.2159L21.9758 7.94164L20.751 12.652H13.8614L7.91342 16.581L3.15961 21.132L0.380812 26.2216L0.442053 26.3733C0.40475 26.3364 0.371401 26.2957 0.342537 26.252C0.21427 26.0903 0.12051 25.9045 0.0669538 25.7058C0.0434728 25.6448 0.0280351 25.5811 0.0210234 25.5162C-0.00700775 25.3124 -0.00700775 25.1057 0.0210234 24.9018V24.697C0.0446162 24.5309 0.0778434 24.3663 0.12054 24.204C1.06977 20.4949 1.42191 16.8768 4.91263 12.9174C2.55486 10.1489 2.99885 2.10116 2.99885 2.10116C2.99885 2.10116 2.463 0.0456061 4.91263 0.0456061H5.21883C7.63784 0.189722 14.8642 3.7547 14.8642 3.7547C14.905 3.72523 14.9486 3.69982 14.9944 3.67885H15.0403H15.1015C15.1816 3.63236 15.2662 3.59423 15.3542 3.56507H15.4384L15.7829 3.39061H15.9283C17.4502 3.05391 19.0085 2.90613 20.5673 2.95068C20.996 2.95068 21.4553 2.95068 21.9452 2.95068C22.4351 2.95068 22.8944 2.95068 23.3231 2.95068C24.8794 2.9055 26.4352 3.05329 27.9544 3.39061H28.1075C28.2606 3.43612 28.3908 3.47405 28.5056 3.51956H28.5668C28.6542 3.5502 28.7387 3.58827 28.8195 3.63334H28.8807H28.9266C28.9723 3.65456 29.0159 3.67995 29.0568 3.70919C29.0568 3.70919 36.2755 0.144212 38.7022 9.58771e-05H38.9701C39.165 -0.00136474 39.3597 0.0138619 39.5519 0.0456061L39.7892 0.0987016L40.0036 0.166967C40.1782 0.2335 40.3391 0.331192 40.4782 0.455199C40.5204 0.491798 40.5589 0.532449 40.593 0.57656C40.752 0.792232 40.8612 1.03994 40.9128 1.30211C40.9644 1.56428 40.9571 1.83449 40.8915 2.09357C40.8915 2.09357 41.3355 10.1413 38.9854 12.9099C42.4761 16.8692 42.813 20.4949 43.7775 24.1964C43.8194 24.3538 43.8526 24.5133 43.877 24.6743C43.9237 24.9637 43.9185 25.2589 43.8617 25.5465Z" transform="translate(4.7491 1.92831)" fill="#4D4D4D"/>
<path d="M0.263973 -2.89347e-08C2.91445 0.412593 5.32555 1.75929 7.05404 3.79253C2.61409 6.2425 2.92794 7.75192 1.78734 9.01104C-0.937876 5.28678 0.263973 -2.89347e-08 0.263973 -2.89347e-08Z" transform="translate(8.93845 4.97)" fill="white"/>
<path d="M17.726 2.82033C17.8178 1.50053 18.2006 0.620666 16.5854 0.180733C14.9702 -0.2592 12.9722 0.180733 10.9665 0.681346C8.96091 1.18196 4.74296 -1.45764 6.33521 2.95686C-0.393609 9.54827 0.00445567 10.2992 0.00445567 10.9288C0.00445567 11.5583 1.43596 12.7492 2.73732 10.9288C4.03869 9.10834 3.21194 9.16902 4.67406 7.13622C6.13618 5.10343 10.0326 1.82669 11.7474 2.2287C13.4621 2.6307 17.6112 4.17047 17.726 2.82033Z" transform="translate(7.66695 13.2845)" fill="white"/>
<path d="M7.02737 0.0230608C7.85412 -0.363777 3.16155 4.24794 3.91941 3.98246C7.85412 2.60198 3.91941 5.54498 3.91941 6.25797C3.91941 7.63845 6.392 6.06835 6.21593 7.26678C6.13173 7.77498 2.53384 10.3463 2.21998 8.78379C1.90612 7.22127 0 7.33505 0 6.39451C0 5.45396 1.07937 6.70549 1.61522 4.19484C2.4879 2.53371 4.7385 1.09255 7.02737 0.0230608Z" transform="translate(12.4941 23.8792)" fill="white"/>
<path d="M11.764 8.84955C11.2073 9.54533 10.4892 10.0976 9.67092 10.4594C8.8526 10.8213 7.95819 10.982 7.06375 10.9279C6.16932 10.982 5.27491 10.8213 4.45659 10.4594C3.63827 10.0976 2.92023 9.54533 2.36353 8.84955C-1.70132 8.09105 0.710031 4.5109 0.710031 4.5109C0.710031 4.5109 2.42477 2.18229 3.06014 1.55273C3.50414 0.983853 3.63427 -0.836559 5.4715 0.543921C6.55086 1.86372 5.34136 2.49328 6.04563 3.18352C6.55086 3.68413 4.71364 3.43382 4.07827 4.70053C3.89103 5.0858 3.78811 5.50593 3.77623 5.93339C3.76436 6.36084 3.84381 6.78595 4.00938 7.18084C4.20075 7.43115 4.89736 7.30979 5.59398 8.00003C5.78475 8.19106 6.01187 8.34271 6.26218 8.44621C6.5125 8.54971 6.78104 8.60301 7.05227 8.60301C7.32351 8.60301 7.59205 8.54971 7.84236 8.44621C8.09267 8.34271 8.31979 8.19106 8.51057 8.00003C9.20718 7.30979 9.90379 7.43115 10.0952 7.18084C10.2676 6.78123 10.3513 6.34959 10.3408 5.91513C10.3302 5.48066 10.2256 5.05352 10.0339 4.6626C9.39856 3.40349 7.56133 3.65379 8.06657 3.14559C8.76318 2.45535 7.56133 1.82579 8.6407 0.505996C10.4779 -0.874483 10.6081 0.945929 11.0521 1.51481C11.6874 2.14437 13.4022 4.47298 13.4022 4.47298C13.4022 4.47298 15.8135 8.09863 11.764 8.84955Z" transform="translate(19.6382 21.6517)" fill="white"/>
<path d="M6.79006 -2.89347e-08C4.13959 0.412593 1.72849 1.75929 -2.33615e-07 3.79253C4.43995 6.2425 4.12609 7.75192 5.2667 9.01104C7.99957 5.28678 6.79006 -2.89347e-08 6.79006 -2.89347e-08Z" transform="translate(37.3885 4.97)" fill="white"/>
<path d="M0.10555 2.82033C0.0136885 1.50053 -0.369065 0.620666 1.24616 0.180733C2.86138 -0.2592 4.85936 0.180733 6.86499 0.681346C8.87063 1.18196 13.0886 -1.45764 11.4963 2.95686C18.2251 9.56344 17.8424 10.3144 17.8118 10.9439C17.7812 11.5735 16.3803 12.7643 15.0789 10.9439C13.7775 9.12351 14.6043 9.18419 13.1422 7.15139C11.68 5.1186 7.78361 1.84186 6.06886 2.24387C4.35413 2.64587 0.197411 4.17047 0.10555 2.82033Z" transform="translate(27.8901 13.2845)" fill="white"/>
<path d="M0.0980975 0.0230608C-0.728652 -0.363777 3.96392 4.24794 3.20606 3.98246C-0.728654 2.60198 3.20606 5.54498 3.20606 6.25797C3.20606 7.63845 0.733468 6.06835 0.909535 7.26678C0.993741 7.77498 4.59163 10.3463 4.90549 8.78379C5.21935 7.22127 7.12547 7.33505 7.12547 6.39451C7.12547 5.45396 6.05376 6.69032 5.52556 4.19484C4.63757 2.53371 2.37931 1.09255 0.0980975 0.0230608Z" transform="translate(33.769 23.8792)" fill="white"/>
<path d="M1.90612 3.77736C2.95884 3.77736 3.81223 2.93177 3.81223 1.88868C3.81223 0.84559 2.95884 0 1.90612 0C0.853397 0 0 0.84559 0 1.88868C0 2.93177 0.853397 3.77736 1.90612 3.77736Z" transform="translate(18.1206 17.3564)" fill="white"/>
<path d="M1.90612 3.77736C2.95884 3.77736 3.81223 2.93177 3.81223 1.88868C3.81223 0.84559 2.95884 0 1.90612 0C0.853397 0 0 0.84559 0 1.88868C0 2.93177 0.853397 3.77736 1.90612 3.77736Z" transform="translate(31.517 17.3564)" fill="white"/>
<path d="M53.5374 8.70005L52.9096 9.5875C52.2817 10.4777 51.3485 11.1112 50.2839 11.37C49.6075 11.5339 48.902 11.5412 48.2223 11.3912C47.5426 11.2413 46.9069 10.9381 46.3645 10.5053V11.37H42.1313V10.4825C41.3385 11.1422 40.3341 11.4999 39.2989 11.4914C38.6845 11.4939 38.0766 11.3673 37.5153 11.1197C36.9875 10.8909 36.5073 10.5668 36.0991 10.164C36.0296 10.2489 35.9555 10.3299 35.8771 10.4067C35.5672 10.7171 35.1973 10.9624 34.7896 11.128C34.3818 11.2935 33.9446 11.3758 33.504 11.37H21.9218V10.4825C21.129 11.1422 20.1247 11.4999 19.0895 11.4914C18.4751 11.4939 17.8671 11.3673 17.3058 11.1197C16.7781 10.888 16.3 10.5585 15.8973 10.1488C15.7911 10.0436 15.6914 9.93212 15.5987 9.81505C15.5069 9.92883 15.4074 10.035 15.3002 10.1412C14.8821 10.5714 14.3802 10.9129 13.8249 11.145C13.2696 11.3771 12.6724 11.4949 12.0697 11.4914C10.998 11.4814 9.96356 11.1004 9.1455 10.4143C8.70821 10.7393 8.22273 10.9951 7.70634 11.1728C7.07261 11.423 6.39814 11.5567 5.71602 11.5672C5.19914 11.5685 4.68435 11.5022 4.185 11.37C3.71419 11.2389 3.26163 11.0503 2.8377 10.8087C2.41561 10.5632 2.02712 10.2649 1.68178 9.92125C1.33605 9.5781 1.03515 9.19331 0.786139 8.7759C0.540251 8.35325 0.347443 7.90238 0.212008 7.43335C-0.0706692 6.4414 -0.0706692 5.39128 0.212008 4.39933C0.345889 3.92735 0.53876 3.47379 0.786139 3.04919C1.03677 2.63288 1.33752 2.24828 1.68178 1.90385C2.02807 1.5634 2.41647 1.26776 2.8377 1.02398C3.71351 0.52567 4.70608 0.264104 5.71602 0.265476C6.3867 0.266636 7.05219 0.382096 7.68337 0.606804C8.32138 0.839045 8.91052 1.18621 9.42108 1.63079L10.2478 2.34378L9.98756 2.77613L10.2861 2.6396C10.847 2.39007 11.4549 2.26083 12.0697 2.26034C12.6707 2.25452 13.2668 2.36799 13.8228 2.59409C14.3716 2.80897 14.8695 3.1344 15.2849 3.5498C15.3984 3.65794 15.5033 3.77459 15.5987 3.89872C15.6957 3.78747 15.7901 3.68381 15.882 3.58773C16.2927 3.17362 16.7817 2.84372 17.3211 2.61684C17.8813 2.37486 18.4861 2.25088 19.0971 2.25276C19.6981 2.24693 20.2941 2.36041 20.8501 2.5865C21.2448 2.73609 21.612 2.94876 21.9371 3.21606V2.46514H24.2337L24.4251 2.68511C24.4788 2.65702 24.5352 2.63416 24.5935 2.61684C25.0809 2.42751 25.601 2.33474 26.1245 2.34378C26.6792 2.33944 27.2289 2.44786 27.7397 2.66235C28.2292 2.87267 28.6736 3.17391 29.0487 3.5498C29.1247 3.62404 29.1962 3.70255 29.2631 3.78494C29.3532 3.6634 29.453 3.54926 29.5616 3.44361C29.8688 3.13594 30.2349 2.89223 30.6385 2.7268C31.0421 2.56137 31.475 2.47756 31.9117 2.48031H36.5048V3.23882C37.3119 2.57621 38.3273 2.21398 39.3754 2.21483C39.9764 2.20901 40.5725 2.32249 41.1285 2.54858C41.5212 2.70209 41.8878 2.91442 42.2155 3.17814V0H46.3645V3.22365C47.1709 2.59327 48.1698 2.25355 49.1969 2.26034C49.5657 2.2591 49.9333 2.30241 50.2916 2.38929C50.9973 2.55646 51.6498 2.89537 52.1901 3.37535C52.4792 3.60658 52.7366 3.87433 52.9556 4.17178L53.5297 4.97579L52.8943 5.7343L51.8226 7.01617L52.7795 7.9643L53.5374 8.70005Z" transform="translate(0.194721 36.228)" fill="#F15A24"/>
<path d="M46.5593 0.189626V3.41327C47.3657 2.7829 48.3645 2.44318 49.3916 2.44997C49.7605 2.44873 50.1281 2.49203 50.4863 2.57892C51.192 2.74608 51.8446 3.08499 52.3848 3.56497C52.6739 3.7962 52.9313 4.06396 53.1503 4.3614L53.7244 5.16542L53.0891 5.92393L52.0173 7.2058L52.9742 8.15393L53.7397 8.91244L53.112 9.79988C52.4841 10.6901 51.5508 11.3236 50.4863 11.5824C49.807 11.7444 49.0991 11.7487 48.4178 11.5947C47.7366 11.4408 47.1005 11.1328 46.5593 10.6949V11.5596H42.326V10.6722C41.5332 11.3318 40.5288 11.6895 39.4936 11.681C38.8792 11.6836 38.2713 11.5569 37.71 11.3093C37.1822 11.0805 36.702 10.7564 36.2938 10.3536C36.2244 10.4385 36.1502 10.5195 36.0718 10.5963C35.7619 10.9068 35.3921 11.1521 34.9843 11.3176C34.5766 11.4831 34.1393 11.5654 33.6987 11.5596H22.1166V10.6722C21.3237 11.3318 20.3194 11.6895 19.2842 11.681C18.6698 11.6836 18.0618 11.5569 17.5005 11.3093C16.9727 11.0778 16.4946 10.7483 16.092 10.3384C15.9858 10.2332 15.8861 10.1217 15.7935 10.0047C15.7016 10.1185 15.6021 10.2246 15.4949 10.3308C15.0769 10.761 14.5749 11.1025 14.0196 11.3346C13.4643 11.5667 12.8672 11.6846 12.2645 11.681C11.1927 11.671 10.1583 11.29 9.34022 10.6039C8.90293 10.9289 8.41745 11.1848 7.90106 11.3624C7.26733 11.6127 6.59286 11.7463 5.91074 11.7568C5.39386 11.7582 4.87907 11.6918 4.37972 11.5596C3.90891 11.4285 3.45635 11.2399 3.03242 10.9983C2.61033 10.7528 2.22184 10.4546 1.8765 10.1109C1.53077 9.76772 1.22987 9.38293 0.980859 8.96553C0.734971 8.54287 0.542163 8.09201 0.406728 7.62298C0.124051 6.63103 0.124051 5.5809 0.406728 4.58896C0.540609 4.11697 0.73348 3.66341 0.980859 3.23882C1.23149 2.8225 1.53224 2.4379 1.8765 2.09347C2.22279 1.75302 2.61119 1.45738 3.03242 1.21361C3.90823 0.715297 4.9008 0.45373 5.91074 0.455102C6.58142 0.456263 7.24691 0.571722 7.87809 0.79643C8.5161 1.02867 9.10524 1.37584 9.6158 1.82041L10.4425 2.53341L10.1823 2.96575L10.4808 2.82922C11.0418 2.5797 11.6496 2.45046 12.2645 2.44997C12.8654 2.44414 13.4615 2.55762 14.0175 2.78371C14.5663 2.99859 15.0642 3.32403 15.4796 3.73943C15.5931 3.84757 15.698 3.96421 15.7935 4.08834C15.8904 3.97709 15.9848 3.87343 16.0767 3.77736C16.4874 3.36325 16.9765 3.03334 17.5159 2.80647C18.076 2.56448 18.6808 2.4405 19.2918 2.44239C19.8928 2.43656 20.4889 2.55004 21.0448 2.77613C21.4395 2.92571 21.8067 3.13839 22.1319 3.40569V2.65477H24.4284L24.6198 2.87474C24.6736 2.84665 24.73 2.82378 24.7882 2.80647C25.2756 2.61714 25.7958 2.52437 26.3192 2.53341C26.8739 2.52907 27.4237 2.63749 27.9344 2.85198C28.4239 3.0623 28.8683 3.36354 29.2434 3.73943C29.3194 3.81368 29.3909 3.89219 29.4578 3.97457C29.5479 3.85303 29.6477 3.73888 29.7563 3.63324C30.0635 3.32557 30.4296 3.08185 30.8332 2.91642C31.2368 2.75099 31.6697 2.66719 32.1064 2.66994H36.6995V3.42844C37.5066 2.76583 38.522 2.40361 39.5702 2.40446C40.1711 2.39863 40.7672 2.51211 41.3232 2.7382C41.7159 2.89172 42.0825 3.10404 42.4102 3.36776V0.189626H46.5593ZM46.7506 0H42.1193V3.03402C41.862 2.86448 41.5875 2.72212 41.3002 2.60926C40.7224 2.37395 40.103 2.25533 39.4783 2.26034C38.8409 2.25803 38.21 2.38719 37.6258 2.6396C37.3356 2.76365 37.0586 2.91611 36.799 3.0947V2.51824H32.0452C31.572 2.51577 31.1032 2.60867 30.6673 2.7913C30.2506 2.96939 29.8734 3.22714 29.5573 3.5498L29.3889 3.73184L29.32 3.66358C28.9268 3.2716 28.4617 2.95753 27.9497 2.7382C26.9138 2.29679 25.7462 2.26692 24.6887 2.65477H24.6504L24.5126 2.57133V2.50307H21.9252V3.03402C21.6662 2.86268 21.389 2.72023 21.0984 2.60926C20.5207 2.37375 19.9012 2.25512 19.2765 2.26034C18.6391 2.25803 18.0083 2.38719 17.424 2.6396C16.8509 2.87147 16.3304 3.21445 15.893 3.64841L15.7475 3.80011L15.5638 3.61048C15.1286 3.17751 14.6072 2.83911 14.0328 2.61684C13.4722 2.38559 12.8716 2.26451 12.2645 2.26034C11.7216 2.25741 11.1825 2.34986 10.6722 2.53341V2.48031L10.5497 2.37412L9.72297 1.66113C9.19659 1.20325 8.58928 0.845802 7.93168 0.606804C7.27858 0.373167 6.58979 0.252578 5.89543 0.250308C5.36484 0.247532 4.83653 0.319031 4.32613 0.462689C3.83235 0.59402 3.35861 0.790459 2.9176 1.04674C2.48172 1.30104 2.08041 1.60947 1.7234 1.96453C1.37063 2.31842 1.0622 2.71317 0.804792 3.14021C0.550321 3.57924 0.352301 4.0481 0.21535 4.53586C-0.0717835 5.55296 -0.0717835 6.62863 0.21535 7.64573C0.354375 8.12796 0.552321 8.59155 0.804792 9.02621C1.06479 9.46911 1.38125 9.877 1.74637 10.2398C2.10292 10.5954 2.5043 10.9039 2.94056 11.1576C3.38049 11.4144 3.8511 11.6157 4.34144 11.7568C4.85326 11.8928 5.38085 11.9616 5.91074 11.9616C6.60606 11.9626 7.29587 11.8393 7.94699 11.5975C8.43291 11.4215 8.89156 11.179 9.3096 10.877C9.63823 11.1373 10.0014 11.3517 10.389 11.5141C10.972 11.7713 11.6033 11.9031 12.2415 11.9009C12.8683 11.9041 13.4892 11.7814 14.0668 11.5403C14.6444 11.2991 15.1666 10.9444 15.6021 10.4977L15.7552 10.3308L15.9159 10.5053C16.3429 10.9342 16.8498 11.2768 17.4087 11.5141C17.9942 11.7717 18.6282 11.9035 19.2689 11.9009C19.9083 11.8996 20.541 11.7706 21.1291 11.5217C21.3968 11.3976 21.6529 11.2504 21.8946 11.0818V11.7568H33.6987C34.1595 11.7592 34.6162 11.6706 35.0421 11.496C35.468 11.3215 35.8544 11.0646 36.179 10.7404L36.2785 10.6418C36.6698 10.9972 37.1172 11.2867 37.6028 11.4989C38.1884 11.7563 38.8223 11.8881 39.463 11.8858C40.1025 11.8844 40.7351 11.7554 41.3232 11.5065C41.5909 11.3824 41.847 11.2352 42.0887 11.0666V11.7568H46.6817V11.0742C47.4617 11.5966 48.3813 11.8765 49.3227 11.8782C49.7321 11.8908 50.1413 11.85 50.5399 11.7568C50.9064 11.6669 51.261 11.5345 51.5963 11.3624C52.2655 11.0151 52.8425 10.5161 53.2804 9.90608L53.9081 9.01863L54 8.88968L53.8699 8.72281L53.1044 7.9643L52.27 7.13753L53.1962 6.02253L53.8316 5.26402L53.9235 5.15025L53.8392 5.02889L53.2651 4.22487C53.0471 3.91542 52.7898 3.63501 52.4996 3.39052C51.9382 2.90552 51.2653 2.56434 50.5399 2.39688C50.1668 2.30532 49.7837 2.25947 49.3993 2.26034C48.7749 2.25869 48.1562 2.37719 47.5774 2.60926C47.2916 2.72825 47.0174 2.87297 46.7583 3.0416V0.00758378L46.7506 0Z" transform="translate(0 36.0384)" fill="white"/>
<path d="M7.23309 7.61545C6.68765 8.07795 6.03597 8.40073 5.33526 8.55546C4.63454 8.7102 3.90621 8.69215 3.21417 8.5029C2.48417 8.29955 1.81916 7.91372 1.28296 7.38242C0.746761 6.85113 0.357365 6.1922 0.152138 5.46888C-0.0507127 4.72369 -0.0507127 3.93855 0.152138 3.19336C0.357365 2.47004 0.746761 1.81112 1.28296 1.27982C1.81916 0.748527 2.48417 0.362693 3.21417 0.159344C3.59284 0.0536934 3.98436 9.75641e-05 4.37775 5.87096e-05C4.89998 -0.00262254 5.41849 0.0872847 5.90876 0.265534C6.39588 0.435444 6.84736 0.692543 7.24075 1.02404L6.33745 2.45761C6.09166 2.19287 5.79148 1.98337 5.45711 1.84323C5.11876 1.69824 4.75404 1.62338 4.3854 1.62326C4.02223 1.6209 3.66252 1.69322 3.329 1.83564C3.01159 1.96359 2.72088 2.14876 2.47163 2.38176C2.22421 2.6251 2.02665 2.91358 1.88984 3.23129C1.74611 3.56176 1.67312 3.91818 1.6755 4.27803C1.67284 4.63545 1.74586 4.98945 1.88984 5.31718C2.16704 5.95793 2.68233 6.46851 3.329 6.74317C3.66239 6.88601 4.02219 6.95835 4.3854 6.95555C4.75096 6.957 5.11298 6.88475 5.44946 6.74317C5.78244 6.61733 6.08498 6.42351 6.33745 6.17429L7.23309 7.61545Z" transform="translate(1.52534 37.8284)" fill="white"/>
<path d="M6.46114 3.32996C6.4658 3.77965 6.37992 4.22575 6.20852 4.64217C6.05438 5.03321 5.82566 5.39117 5.53487 5.69649C5.24157 5.99247 4.89324 6.22943 4.50909 6.39432C4.10972 6.56289 3.6801 6.64979 3.246 6.64979C2.81191 6.64979 2.38228 6.56289 1.98291 6.39432C1.19588 6.05878 0.574203 5.42916 0.252864 4.64217C0.0814683 4.22575 -0.00441173 3.77965 0.000245771 3.32996C-0.00521975 2.87527 0.0806526 2.42406 0.252864 2.00257C0.410883 1.60995 0.644935 1.25178 0.941821 0.948251C1.23688 0.650862 1.588 0.413768 1.97526 0.250425C2.37436 0.0815702 2.8044 -0.00364962 3.23835 0.000120045C3.67079 -0.00351267 4.09981 0.0763544 4.50144 0.235258C4.88597 0.389131 5.23496 0.618797 5.52722 0.910327C5.82062 1.20931 6.05208 1.56234 6.20852 1.94948C6.38458 2.3884 6.47046 2.85773 6.46114 3.32996ZM4.83061 3.32996C4.83287 3.09123 4.78868 2.8543 4.70047 2.63213C4.62164 2.43235 4.50468 2.2495 4.35599 2.09359C4.21093 1.94373 4.03636 1.82498 3.8431 1.74468C3.44267 1.5856 2.99575 1.5856 2.59532 1.74468C2.4013 1.8236 2.22646 1.94254 2.08243 2.09359C1.93343 2.24926 1.81643 2.43218 1.73795 2.63213C1.65343 2.8551 1.61188 3.0918 1.61547 3.32996C1.61276 3.56064 1.65432 3.78973 1.73795 4.00503C1.81761 4.20439 1.93448 4.38709 2.08243 4.54356C2.22717 4.69761 2.40156 4.8214 2.59532 4.90765C2.79303 4.99404 3.00696 5.03798 3.22304 5.03659C3.43843 5.03883 3.65201 4.99754 3.85075 4.91523C4.04402 4.83494 4.21858 4.71618 4.36365 4.56632C4.51327 4.41114 4.63036 4.2281 4.70813 4.02778C4.79597 3.80551 4.84014 3.56866 4.83826 3.32996H4.83061Z" transform="translate(9.02611 39.7777)" fill="white"/>
<path d="M6.4841 3.32996C6.48876 3.77965 6.40288 4.22575 6.23149 4.64217C6.07049 5.03505 5.83389 5.39314 5.53487 5.69649C5.24156 5.99247 4.89324 6.22943 4.50909 6.39432C4.10972 6.56289 3.6801 6.64979 3.246 6.64979C2.81191 6.64979 2.38228 6.56289 1.98291 6.39432C1.19588 6.05878 0.574203 5.42916 0.252863 4.64217C0.0814682 4.22575 -0.00441184 3.77965 0.000245654 3.32996C-0.00521987 2.87527 0.0806524 2.42406 0.252863 2.00257C0.413162 1.60933 0.649845 1.25111 0.949476 0.948251C1.24454 0.650862 1.59566 0.413768 1.98291 0.250425C2.38202 0.0815702 2.81206 -0.00364962 3.246 0.000120045C3.67845 -0.00351267 4.10747 0.0763544 4.50909 0.235258C4.89363 0.389131 5.24261 0.618797 5.53487 0.910327C5.83377 1.20796 6.07049 1.56108 6.23149 1.94948C6.40754 2.3884 6.49342 2.85773 6.4841 3.32996ZM4.85357 3.32996C4.85583 3.09123 4.81165 2.8543 4.72343 2.63213C4.64461 2.43235 4.52765 2.2495 4.37896 2.09359C4.23389 1.94373 4.05933 1.82498 3.86606 1.74468C3.46563 1.5856 3.01872 1.5856 2.61829 1.74468C2.42427 1.8236 2.24943 1.94254 2.10539 2.09359C1.9564 2.24926 1.83939 2.43218 1.76092 2.63213C1.67639 2.8551 1.63485 3.0918 1.63843 3.32996C1.63572 3.56064 1.67729 3.78973 1.76092 4.00503C1.84058 4.20439 1.95745 4.38709 2.10539 4.54356C2.25014 4.69761 2.42452 4.8214 2.61829 4.90765C2.816 4.99404 3.02992 5.03798 3.246 5.03659C3.46139 5.03883 3.67498 4.99754 3.87372 4.91523C4.06698 4.83494 4.24155 4.71618 4.38661 4.56632C4.53624 4.41114 4.65333 4.2281 4.73109 4.02778C4.81633 3.80501 4.8579 3.56817 4.85357 3.32996Z" transform="translate(16.0382 39.7777)" fill="white"/>
<path d="M1.61522 6.40181H-2.33615e-07V0.144144H0.390409L0.926266 0.758534C1.44817 0.276026 2.13391 0.00532002 2.84769 2.93583e-05C3.22394 -0.00167071 3.59652 0.0731954 3.94237 0.219994C4.28032 0.362329 4.58712 0.568424 4.84567 0.8268C5.10266 1.08449 5.30788 1.38823 5.45042 1.72184C5.60756 2.0729 5.68842 2.45279 5.68773 2.83684V6.40181H4.0572V2.83684C4.05904 2.67553 4.02779 2.51554 3.96534 2.36656C3.90455 2.2222 3.81617 2.09085 3.70506 1.97973C3.59494 1.87072 3.4651 1.78324 3.32231 1.72184C3.17452 1.66036 3.01563 1.62938 2.85535 1.63081C2.69006 1.6288 2.52605 1.65976 2.37308 1.72184C2.07892 1.84341 1.84509 2.0751 1.72239 2.36656C1.65994 2.51554 1.62869 2.67553 1.63053 2.83684L1.61522 6.40181Z" transform="translate(23.4179 39.8764)" fill="white"/>
<path d="M3.67827 6.28801H0.00383198V4.72549H3.67827C3.78588 4.72549 3.88907 4.68313 3.96516 4.60774C4.04125 4.53235 4.08399 4.4301 4.08399 4.32348C4.08868 4.27881 4.07946 4.23379 4.05756 4.19446C4.03567 4.15514 4.00215 4.1234 3.96151 4.10351C3.87482 4.0533 3.7782 4.02225 3.67827 4.01249H1.99415C1.73073 4.01133 1.47029 3.95713 1.22864 3.85321C0.744937 3.64793 0.36066 3.26445 0.156934 2.78371C0.0533283 2.53604 6.96853e-07 2.27056 6.96853e-07 2.00245C6.96853e-07 1.73435 0.0533283 1.46887 0.156934 1.22119C0.359551 0.741494 0.744517 0.360048 1.22864 0.159285C1.47061 0.0563468 1.73084 0.0021985 1.99415 -6.94432e-07H5.27053V1.60045H2.02477C1.91717 1.60045 1.81397 1.6428 1.73789 1.71819C1.6618 1.79358 1.61906 1.89583 1.61906 2.00245C1.619 2.05617 1.62981 2.10935 1.65085 2.15886C1.67189 2.20836 1.70272 2.25319 1.74154 2.29068C1.77766 2.32928 1.8215 2.36001 1.87026 2.3809C1.91903 2.4018 1.97165 2.4124 2.02477 2.41205H3.67827C3.93962 2.41192 4.19888 2.45816 4.44378 2.54858C4.68099 2.63585 4.89923 2.76714 5.08681 2.93542C5.27521 3.10685 5.42506 3.31568 5.52662 3.5483C5.62818 3.78092 5.67916 4.03212 5.67625 4.28555C5.67508 4.54657 5.62038 4.80462 5.5155 5.04406C5.41106 5.28134 5.26311 5.49738 5.07916 5.6812C4.71186 6.0595 4.20796 6.27777 3.67827 6.28801Z" transform="translate(30.0204 39.9902)" fill="white"/>
<path d="M6.48411 3.32996C6.48876 3.77965 6.40288 4.22575 6.23149 4.64217C6.07049 5.03505 5.83389 5.39314 5.53487 5.69649C5.24156 5.99247 4.89324 6.22943 4.50909 6.39432C4.10972 6.56289 3.6801 6.64979 3.246 6.64979C2.81191 6.64979 2.38228 6.56289 1.98291 6.39432C1.19588 6.05878 0.574201 5.42916 0.252862 4.64217C0.0814666 4.22575 -0.00441196 3.77965 0.000245537 3.32996C-0.00521998 2.87527 0.0806509 2.42406 0.252862 2.00257C0.41316 1.60933 0.649846 1.25111 0.949478 0.948251C1.24454 0.650862 1.59566 0.413768 1.98291 0.250425C2.38202 0.0815702 2.81206 -0.00364962 3.246 0.000120045C3.67845 -0.00351267 4.10747 0.0763544 4.50909 0.235258C4.89363 0.389131 5.24261 0.618797 5.53487 0.910327C5.83102 1.20864 6.06511 1.56171 6.22383 1.94948C6.4025 2.38787 6.49099 2.85721 6.48411 3.32996ZM4.85357 3.32996C4.85583 3.09123 4.81165 2.8543 4.72343 2.63213C4.64461 2.43235 4.52765 2.2495 4.37896 2.09359C4.23389 1.94373 4.05933 1.82498 3.86606 1.74468C3.46563 1.5856 3.01872 1.5856 2.61828 1.74468C2.42426 1.8236 2.24943 1.94254 2.10539 2.09359C1.9564 2.24926 1.83939 2.43218 1.76092 2.63213C1.67639 2.8551 1.63485 3.0918 1.63843 3.32996C1.63572 3.56064 1.67729 3.78973 1.76092 4.00503C1.84058 4.20439 1.95744 4.38709 2.10539 4.54356C2.25014 4.69761 2.42452 4.8214 2.61828 4.90765C2.816 4.99404 3.02993 5.03798 3.246 5.03659C3.46139 5.03883 3.67498 4.99754 3.87372 4.91523C4.06698 4.83494 4.24155 4.71618 4.38661 4.56632C4.53624 4.41114 4.65333 4.2281 4.73109 4.02778C4.81633 3.80501 4.8579 3.56817 4.85357 3.32996Z" transform="translate(36.2553 39.7777)" fill="white"/>
<path d="M1.60757 8.76073H0V5.78693e-07H1.60757V8.76073Z" transform="translate(43.6503 37.5175)" fill="white"/>
<path d="M2.82513 4.98345L3.01651 5.02137H3.20789C3.36315 5.02334 3.51787 5.0029 3.66719 4.96069C3.81262 4.91871 3.95167 4.85747 4.08057 4.77865C4.34093 4.61729 4.54631 4.38209 4.67001 4.10358L5.88717 5.29443C5.73761 5.5043 5.56281 5.69534 5.36662 5.86331C5.17274 6.0317 4.95947 6.17682 4.73125 6.29566C4.50304 6.41252 4.26144 6.50166 4.01167 6.56114C3.76106 6.62151 3.50408 6.65206 3.24617 6.65216C2.82002 6.65562 2.39744 6.57489 2.00313 6.41471C1.60882 6.25452 1.25068 6.01808 0.949636 5.7192C0.650838 5.41858 0.4142 5.063 0.253023 4.67246C0.0800095 4.24856 -0.00587256 3.7947 0.000406889 3.33749C-0.00668194 2.87037 0.0791563 2.40643 0.253023 1.97218C0.407606 1.58253 0.640751 1.22821 0.938212 0.93086C1.23567 0.633512 1.5912 0.399386 1.98307 0.242791C2.38372 0.0797678 2.81306 -0.00273722 3.24617 6.95079e-05C3.50412 -0.000572671 3.76119 0.0299929 4.01167 0.0910893C4.77205 0.28105 5.43788 0.736139 5.88717 1.37296L2.82513 4.98345ZM3.65188 1.67636C3.58031 1.64988 3.50577 1.63205 3.42989 1.62327H3.20023C2.98494 1.62207 2.77156 1.66332 2.57251 1.74463C2.37992 1.82269 2.2054 1.93883 2.05962 2.08596C1.91 2.24114 1.79291 2.42418 1.71514 2.6245C1.63003 2.84994 1.58848 3.08924 1.59266 3.32991C1.59266 3.39059 1.59266 3.45633 1.59266 3.52712C1.58874 3.60292 1.58874 3.67887 1.59266 3.75467C1.59266 3.83052 1.59266 3.90637 1.64625 3.97463C1.66391 4.04069 1.68961 4.10436 1.7228 4.16426L3.65188 1.67636Z" transform="translate(46.1837 39.7777)" fill="white"/>
</svg>
