<svg width="18" height="19" viewBox="0 0 18 19" fill="none" xmlns="http://www.w3.org/2000/svg">
<path d="M16.0482 8.0241C16.0482 12.4699 12.4699 16.0482 8.0241 16.0482C3.57831 16.0482 -2.58526e-08 12.4699 -2.58526e-08 8.0241C-2.58526e-08 3.57831 3.57831 -5.17052e-08 8.0241 -5.17052e-08C12.4699 -5.17052e-08 16.0482 3.57831 16.0482 8.0241Z" transform="translate(0.975998 1.40964)" fill="#FF6400"/>
<path d="M4.98795 5.31325L15.8313 0L10.8434 11.3855L0 16.5904L4.98795 5.31325ZM8.78313 9.3253L10.7349 5.42169L6.93976 7.37349L8.78313 9.3253Z" transform="translate(1.08435 1.08434)" fill="white"/>
<path d="M15.8313 2.27711L11.494 12.0361L2.16867 16.5904L6.50602 6.83133L15.8313 2.27711ZM10.0843 11.2771L13.012 5.20482L7.04819 8.3494L10.0843 11.2771ZM18 0L15.2892 1.3012L6.07229 5.85542L5.74699 6.07229L5.53012 6.39759L1.19277 16.1566L0 18.8675L2.71084 17.5663L11.9277 13.012L12.253 12.7952L12.3614 12.4699L16.6988 2.71084L18 0ZM8.89157 8.56627L10.6265 7.6988L9.75904 9.43373L8.89157 8.56627Z" fill="#45413F"/>
</svg>
